<svg width="164" height="164" viewBox="0 0 164 164" fill="none" xmlns="http://www.w3.org/2000/svg">
<g clip-path="url(#clip0_2_13)">
<path d="M4 82.5V4H160V160H81.7492" stroke="#D5A18E" stroke-width="7"/>
<path d="M119.586 55.576H113.314C111.949 55.576 111.138 55.1493 110.882 54.296C110.455 52.8453 110.029 50.0293 109.602 45.848H88.098V117.784L89.634 118.04C93.5593 118.808 95.6927 119.235 96.034 119.32C96.8873 119.576 97.314 120.344 97.314 121.624V127H66.338V121.624C66.338 120.941 66.5087 120.387 66.85 119.96C67.2767 119.448 67.8313 119.149 68.514 119.064L75.554 117.656V45.72H53.922C53.41 50.4987 53.026 53.3573 52.77 54.296C52.514 55.1493 51.6607 55.576 50.21 55.576H44.066V35.352H119.586V55.576Z" fill="#D5A18E"/>
</g>
<defs>
<clipPath id="clip0_2_13">
<rect width="164" height="164" fill="white"/>
</clipPath>
</defs>
</svg>
